<svg width="200" height="204" viewBox="0 0 200 204" fill="none" xmlns="http://www.w3.org/2000/svg">
<path d="M145.98 95.5042C146.964 131.682 121.756 159.187 92.7134 159.977C63.6705 160.767 37.0046 134.674 36.0203 98.4958C35.0361 62.3178 60.2437 34.8135 89.2866 34.0233C118.33 33.2331 144.995 59.3262 145.98 95.5042Z" stroke="url(#paint0_radial_1_32)" stroke-width="26"/>
<g clip-path="url(#clip0_1_32)">
<path d="M103.212 129.159L108.921 134.407C109.503 134.942 110.493 135.002 111.136 134.541L126.308 123.657C126.95 123.196 126.999 122.391 126.417 121.856L120.708 116.608C118.392 114.479 114.432 114.239 111.863 116.072L103.648 121.965C101.079 123.798 100.884 127.019 103.212 129.159ZM131.321 126.364L163.843 156.259L165.825 169.299C166.097 171.06 164.143 172.452 162.025 172.025L146.334 168.81L113.812 138.914C113.23 138.379 113.279 137.574 113.922 137.113L129.094 126.229C129.749 125.769 130.739 125.829 131.321 126.364ZM150.635 153.066C151.387 152.527 151.444 151.595 150.763 150.968L131.69 133.437C131.009 132.81 129.863 132.741 129.111 133.28C128.359 133.82 128.303 134.752 128.984 135.378L148.056 152.91C148.737 153.536 149.884 153.606 150.635 153.066ZM154.798 162.262L148.545 161.883L148.312 165.729L156.642 167.435L160.893 164.385L159.835 157.463L155.106 157.176L154.798 162.262Z" fill="url(#paint1_linear_1_32)"/>
</g>
<defs>
<radialGradient id="paint0_radial_1_32" cx="0" cy="0" r="1" gradientUnits="userSpaceOnUse" gradientTransform="translate(91 97) rotate(88.4416) scale(76 68)">
<stop offset="0.489583" stop-color="#FF0000"/>
<stop offset="1" stop-color="#00BFFC"/>
</radialGradient>
<linearGradient id="paint1_linear_1_32" x1="135.634" y1="116.021" x2="132.347" y2="170.265" gradientUnits="userSpaceOnUse">
<stop offset="0.0416667" stop-color="#FF0000" stop-opacity="0"/>
<stop offset="0.651042" stop-color="#00FF46"/>
<stop offset="1" stop-color="#00BFFC"/>
</linearGradient>
<clipPath id="clip0_1_32">
<rect width="66.8154" height="54.3436" fill="white" transform="matrix(-0.998169 -0.0604849 -0.0604849 0.998169 168.98 118.041)"/>
</clipPath>
</defs>
</svg>
